<svg width="48" height="48" viewBox="0 0 48 48" fill="none" xmlns="http://www.w3.org/2000/svg">
<path d="M48 27.5C48 23.8886 47.2887 20.3127 45.9067 16.9762C44.5247 13.6398 42.499 10.6082 39.9454 8.05456C37.3918 5.50095 34.3602 3.47532 31.0238 2.09331C27.6873 0.711308 24.1114 -1.57857e-07 20.5 0L20.5 6.5L33.5 13L38.5 21.5L41.125 27.5H48Z" fill="#FDDC38"/>
<path fill-rule="evenodd" clip-rule="evenodd" d="M21.5 48C33.3741 48 43 38.3741 43 26.5C43 14.6259 33.3741 5 21.5 5C9.62588 5 0 14.6259 0 26.5C0 38.3741 9.62588 48 21.5 48ZM21.5 13C22.3284 13 23 13.6716 23 14.5V28H30.5C31.3284 28 32 28.6716 32 29.5C32 30.3284 31.3284 31 30.5 31H20V14.5C20 13.6716 20.6716 13 21.5 13Z" fill="#404040"/>
</svg>
