<svg width="44" height="48" viewBox="0 0 44 48" fill="none" xmlns="http://www.w3.org/2000/svg">
<path d="M27.5968 13.8161C27.6747 13.8165 27.7447 13.8636 27.7743 13.9357C27.8046 14.0076 27.7886 14.0906 27.7338 14.146L22.4092 19.436C22.3006 19.5444 22.1534 19.6053 22 19.6053C21.8465 19.6053 21.6994 19.5444 21.5908 19.436L16.2662 14.146C16.2114 14.0906 16.1954 14.0076 16.2256 13.9357C16.2552 13.8636 16.3253 13.8165 16.4032 13.8161H18.0631V1.65796C18.0631 1.01847 18.5812 0.500054 19.2207 0.500054L24.8948 0.500016C25.5343 0.500023 26.0526 1.01842 26.0526 1.65789V13.8158L27.5968 13.8161Z" fill="#FDDC38"/>
<path fill-rule="evenodd" clip-rule="evenodd" d="M22 47.3948C34.1503 47.3948 44 37.545 44 25.3948C44 15.1543 37.0033 6.54793 27.5295 4.09546C27.5482 4.16789 27.5582 4.24351 27.5582 4.32109V12.6583H30.9548C31.0795 12.659 31.1915 12.7344 31.239 12.8498C31.2873 12.9648 31.2617 13.0975 31.1741 13.1863L22.6547 21.6502C22.481 21.8236 22.2455 21.9211 22 21.9211C21.7545 21.9211 21.519 21.8236 21.3453 21.6502L12.8259 13.1863C12.7382 13.0975 12.7126 12.9648 12.761 12.8498C12.8084 12.7344 12.9205 12.659 13.0451 12.6583H16.4418V4.32109C16.4418 4.24447 16.4513 4.16881 16.4696 4.09569C6.99629 6.54847 0 15.1546 0 25.3948C0 37.545 9.84974 47.3948 22 47.3948Z" fill="#404040"/>
<path d="M14.4336 29.8074V29.3349C14.4336 28.0883 14.6502 27.2353 15.0832 26.776C15.5163 26.3036 16.343 26.0674 17.5634 26.0674H17.9965C19.2169 26.0674 20.0502 26.3036 20.4964 26.776C20.9557 27.2353 21.1853 28.0883 21.1853 29.3349V29.8074C21.1853 31.054 20.9557 31.9136 20.4964 32.386C20.0502 32.8453 19.2169 33.0749 17.9965 33.0749H17.5634C16.343 33.0749 15.5163 32.8453 15.0832 32.386C14.6502 31.9136 14.4336 31.054 14.4336 29.8074ZM18.1343 38.6849L24.5513 26.3626C24.6038 26.2708 24.6825 26.2248 24.7875 26.2248H26.6575C26.815 26.2248 26.8609 26.3036 26.7953 26.461L20.3783 38.7834C20.3389 38.8752 20.2602 38.9211 20.1421 38.9211H18.2721C18.1146 38.9211 18.0687 38.8424 18.1343 38.6849ZM17.5634 31.0671H17.9965C18.4033 31.0671 18.6657 30.995 18.7838 30.8506C18.9151 30.6931 18.9807 30.3454 18.9807 29.8074V29.3349C18.9807 28.7969 18.9151 28.4557 18.7838 28.3114C18.6657 28.1539 18.4033 28.0751 17.9965 28.0751H17.5634C17.1566 28.0751 16.8942 28.1473 16.7761 28.2917C16.6711 28.436 16.6186 28.7838 16.6186 29.3349V29.8074C16.6186 30.3585 16.6711 30.7063 16.7761 30.8506C16.8942 30.995 17.1566 31.0671 17.5634 31.0671ZM23.7639 35.811V35.3386C23.7639 34.0919 23.9805 33.239 24.4135 32.7797C24.8466 32.3072 25.6733 32.071 26.8937 32.071H27.3268C28.5472 32.071 29.3805 32.3072 29.8267 32.7797C30.286 33.239 30.5156 34.0919 30.5156 35.3386V35.811C30.5156 37.0577 30.286 37.9172 29.8267 38.3897C29.3805 38.849 28.5472 39.0786 27.3268 39.0786H26.8937C25.6733 39.0786 24.8466 38.849 24.4135 38.3897C23.9805 37.9172 23.7639 37.0577 23.7639 35.811ZM26.8937 37.0708H27.3268C27.7336 37.0708 27.9961 36.9987 28.1142 36.8543C28.2454 36.6968 28.311 36.3491 28.311 35.811V35.3386C28.311 34.8006 28.2454 34.4594 28.1142 34.315C27.9961 34.1576 27.7336 34.0788 27.3268 34.0788H26.8937C26.4869 34.0788 26.2245 34.151 26.1064 34.2954C26.0014 34.4397 25.9489 34.7875 25.9489 35.3386V35.811C25.9489 36.3622 26.0014 36.7099 26.1064 36.8543C26.2245 36.9987 26.4869 37.0708 26.8937 37.0708Z" fill="white"/>
</svg>
