<svg width="53" height="40" viewBox="0 0 53 40" fill="none" xmlns="http://www.w3.org/2000/svg">
<path d="M44.8454 13.8409C44.4768 8.90768 40.193 5.01159 34.9417 5.01159C34.8367 5.01159 34.7207 5.02142 34.6157 5.03196C31.8479 1.99196 27.775 0.0586548 23.2275 0.0586548C15.1232 0.0586548 8.52471 6.16957 8.14582 13.8409C3.641 14.546 0.178711 18.2911 0.178711 22.7911C0.178711 27.7847 4.45142 31.8719 9.6721 31.8719H43.3196C48.5401 31.8719 52.813 27.7849 52.813 22.7911C52.8122 18.2904 49.3492 14.5453 44.8451 13.8409L44.8454 13.8409Z" fill="#404040"/>
<path d="M23.7884 30.9974L27.0976 34.086C28.2991 35.2074 28.2882 37.0521 27.105 38.179L27.105 38.1791L27.0976 38.186C25.9358 39.2703 24.0818 39.2608 22.9141 38.1928L22.914 38.1929L22.9067 38.186L19.4995 35.006L16.0923 38.186C14.9306 39.2703 13.0765 39.2608 11.9088 38.1928L11.9088 38.1929L11.9014 38.186C10.6999 37.0646 10.7108 35.2198 11.894 34.0929L11.894 34.0929L11.9014 34.086L15.2076 31.0002L11.9014 27.9144C10.6999 26.793 10.7108 24.9483 11.894 23.8213L11.894 23.8213L11.9014 23.8144C12.4958 23.2596 13.2511 23.0002 13.989 23.0002C14.7112 23.0002 15.4916 23.2501 16.0832 23.8206L19.4837 26.9944L22.8909 23.8144C23.4853 23.2596 24.2406 23.0002 24.9784 23.0002C25.701 23.0002 26.4817 23.2503 27.0734 23.8213C28.2675 24.9434 28.2542 26.7828 27.0734 27.9075L27.0734 27.9075L27.0688 27.9118L23.7884 30.9974Z" fill="#FDDC38" stroke="white" stroke-width="2"/>
</svg>
