<svg width="30" height="50" viewBox="0 0 30 50" fill="none" xmlns="http://www.w3.org/2000/svg">
<rect x="2.12012" y="3" width="24.64" height="44" rx="2" fill="white"/>
<path d="M2.04536 1.9562L2.04521 1.95633C1.15631 2.76789 0.65 3.87562 0.65 5.03805V44.962C0.65 46.1245 1.15637 47.2321 2.04519 48.0437L2.04534 48.0438C2.93359 48.854 4.13179 49.3044 5.375 49.3044H24.625C25.8682 49.3044 27.0663 48.854 27.9546 48.0439L27.9548 48.0437C28.8437 47.2322 29.35 46.1244 29.35 44.962V5.03805C29.35 3.8756 28.8436 2.76798 27.9548 1.95635L27.9547 1.95622C27.0664 1.14603 25.8682 0.695654 24.625 0.695654H5.375C4.13177 0.695654 2.93369 1.14609 2.04536 1.9562ZM26.2453 3.60269L26.4812 3.34418L26.2453 3.60269C26.6688 3.98919 26.9 4.5066 26.9 5.03805V44.962C26.9 45.4936 26.6688 46.011 26.2453 46.3973C25.8207 46.7847 25.238 47.0074 24.625 47.0074H5.37505C4.76192 47.0074 4.17927 46.7848 3.7548 46.3974C3.33134 46.0109 3.1001 45.4935 3.1001 44.962V5.03805C3.1001 4.50648 3.33127 3.98911 3.75475 3.60273C4.17936 3.21533 4.76205 2.99266 5.37505 2.99266H7.65005V4.44114C7.65005 4.75653 7.78763 5.05192 8.02038 5.26431C8.25204 5.47572 8.56004 5.58962 8.87505 5.58962H21.125C21.4401 5.58962 21.7481 5.47572 21.9797 5.26431C22.2125 5.05192 22.35 4.75653 22.35 4.44114V2.99266H24.625C25.2382 2.99266 25.8208 3.21527 26.2453 3.60269Z" fill="#404040" stroke="#404040" stroke-width="0.7"/>
<rect x="6.6001" y="9" width="16.8" height="9" rx="2" fill="#404040"/>
<rect x="6.6001" y="32" width="16.8" height="12" rx="2" fill="#404040"/>
<rect x="6.6001" y="20" width="16.8" height="10" rx="2" fill="#FDDC38"/>
</svg>
