<svg width="49" height="40" viewBox="0 0 49 40" fill="none" xmlns="http://www.w3.org/2000/svg">
<g clip-path="url(#clip0_109_191)">
<path fill-rule="evenodd" clip-rule="evenodd" d="M0 36.275C0 38.2934 1.60376 39.9496 3.55652 39.9496H45.2232C47.176 39.9496 48.7797 38.293 48.7797 36.275V3.72398C48.7797 1.70558 47.176 0.0493889 45.2232 0.0493889H3.55652C1.60376 0.049778 0 1.70639 0 3.72439L0 36.275ZM42.9374 19.9996C42.9374 18.9848 43.734 18.1621 44.7151 18.1621C45.6973 18.1621 46.4935 18.9851 46.4935 19.9996C46.4935 21.0137 45.6969 21.8371 44.7151 21.8371C43.7339 21.8371 42.9374 21.0144 42.9374 19.9996Z" fill="#404040"/>
<rect x="3.48438" y="3.55554" width="37.4564" height="32.8889" rx="2" fill="white"/>
<rect x="6.09766" y="6.22223" width="16.5505" height="27.5556" rx="2" fill="#404040"/>
<rect x="25.2612" y="6.22223" width="13.0662" height="13.3333" rx="2" fill="#FDDC38"/>
<rect x="25.2612" y="22.2222" width="13.0662" height="11.5556" rx="2" fill="#404040"/>
</g>
<defs>
<clipPath id="clip0_109_191">
<rect width="40" height="48.7805" fill="white" transform="translate(0 40) rotate(-90)"/>
</clipPath>
</defs>
</svg>
