<svg width="12" height="13" viewBox="0 0 12 13" fill="none" xmlns="http://www.w3.org/2000/svg">
<path fill-rule="evenodd" clip-rule="evenodd" d="M9 4C9 5.65685 7.65685 7 6 7C4.34315 7 3 5.65685 3 4C3 2.34315 4.34315 1 6 1C7.65685 1 9 2.34315 9 4ZM8.12558 7.38912C9.25159 6.68143 10 5.42811 10 4C10 1.79086 8.20914 0 6 0C3.79086 0 2 1.79086 2 4C2 5.42811 2.74841 6.68143 3.87443 7.38912C3.08727 7.68733 2.36404 8.15067 1.75736 8.75736C0.632141 9.88258 0 11.4087 0 13H1.08C1.08 11.6951 1.59836 10.4437 2.52103 9.52103C3.44371 8.59836 4.69514 8.08 6 8.08C7.30487 8.08 8.55629 8.59836 9.47897 9.52103C10.4016 10.4437 10.92 11.6951 10.92 13H12C12 11.4087 11.3679 9.88258 10.2426 8.75736C9.63596 8.15067 8.91273 7.68733 8.12558 7.38912Z" fill="#404040"/>
</svg>
