<svg width="149" height="46" viewBox="0 0 149 46" fill="none" xmlns="http://www.w3.org/2000/svg">
<path d="M5.89743 41.4581V38.3333L14.1538 31.8462L20.0513 37.7436V46H10.4394C9.40803 46 8.40739 45.649 7.60205 45.0047C6.52463 44.1428 5.89743 42.8378 5.89743 41.4581Z" fill="#FDDC38"/>
<path d="M21.2308 46V37.7436L33.0256 29.4872L36.5641 33.0256V46H21.2308Z" fill="#FDDC38"/>
<path d="M37.7436 46V33.0256L53.0769 21.2308V40.4534C53.0769 41.7509 52.622 43.0074 51.7913 44.0042C50.7375 45.2688 49.1764 46 47.5303 46H37.7436Z" fill="#FDDC38"/>
<path d="M1.17947 38.9231L14.1538 28.8974L20.641 35.3846L33.0256 26.5385L37.1538 30.6667L56.6154 15.9231" stroke="#FDDC38" stroke-width="2.35897" stroke-linecap="round"/>
<path d="M7.07693 27.1282L7.61428 3.48486C7.64341 2.20325 8.69071 1.17949 9.97265 1.17949H48.9487C50.2516 1.17949 51.3077 2.23564 51.3077 3.53846V14.1538" stroke="#404040" stroke-width="2.35897" stroke-linecap="round"/>
<g clip-path="url(#clip0_30_310)">
<rect x="22.4102" y="5.89744" width="1.17949" height="16.5128" fill="#404040"/>
<rect x="33.0256" y="5.89744" width="1.17949" height="16.5128" fill="#404040"/>
<path d="M17.4914 9.63401C17.949 9.63401 18.3791 9.70773 18.7814 9.85517C19.1838 9.99953 19.534 10.2053 19.8319 10.4726C20.1299 10.7367 20.3648 11.0562 20.5368 11.4309C20.7089 11.8025 20.7949 12.2157 20.7949 12.6703V14.2091C20.7949 14.6668 20.7089 15.083 20.5368 15.4577C20.3648 15.8325 20.1299 16.1534 19.8319 16.4207C19.534 16.6848 19.1838 16.8891 18.7814 17.0335C18.3791 17.1778 17.949 17.25 17.4914 17.25C17.0368 17.25 16.6098 17.1778 16.2105 17.0335C15.8081 16.8891 15.458 16.6848 15.16 16.4207C14.859 16.1534 14.6225 15.8325 14.4505 15.4577C14.2754 15.083 14.1879 14.6668 14.1879 14.2091V12.6703C14.1879 12.2157 14.2754 11.8025 14.4505 11.4309C14.6225 11.0562 14.859 10.7367 15.16 10.4726C15.458 10.2053 15.8081 9.99953 16.2105 9.85517C16.6098 9.70773 17.0368 9.63401 17.4914 9.63401ZM17.4914 10.5785C17.1658 10.5785 16.8602 10.6277 16.5745 10.726C16.2889 10.8212 16.0401 10.9594 15.8281 11.1406C15.6131 11.3188 15.4442 11.5369 15.3213 11.7949C15.1954 12.0529 15.1324 12.3447 15.1324 12.6703V14.2091C15.1324 14.5347 15.1954 14.8281 15.3213 15.0891C15.4442 15.3472 15.6131 15.5668 15.8281 15.748C16.0401 15.9261 16.2889 16.0644 16.5745 16.1627C16.8602 16.2579 17.1658 16.3055 17.4914 16.3055C17.817 16.3055 18.1241 16.2579 18.4128 16.1627C18.6985 16.0644 18.9488 15.9261 19.1639 15.748C19.3758 15.5668 19.5432 15.3472 19.6661 15.0891C19.7889 14.8281 19.8503 14.5347 19.8503 14.2091V12.6703C19.8503 12.3447 19.7889 12.0529 19.6661 11.7949C19.5432 11.5369 19.3758 11.3188 19.1639 11.1406C18.9488 10.9594 18.6985 10.8212 18.4128 10.726C18.1241 10.6277 17.817 10.5785 17.4914 10.5785Z" fill="#404040"/>
<path d="M31.3255 16.0769H25.1931V14.1879C25.1931 13.9299 25.2422 13.6872 25.3405 13.4599C25.4419 13.2296 25.5771 13.0299 25.746 12.861C25.918 12.689 26.1177 12.5538 26.3449 12.4555C26.5753 12.3542 26.821 12.3035 27.0821 12.3035H29.4411C29.5701 12.3035 29.6914 12.2789 29.8051 12.2298C29.9218 12.1806 30.0216 12.113 30.1046 12.027C30.1906 11.941 30.2581 11.8412 30.3073 11.7276C30.3595 11.6108 30.3856 11.488 30.3856 11.359C30.3856 11.23 30.3595 11.1086 30.3073 10.995C30.2581 10.8783 30.1906 10.7769 30.1046 10.6909C30.0216 10.6049 29.9218 10.5373 29.8051 10.4882C29.6914 10.439 29.5701 10.4145 29.4411 10.4145H25.6677V9.46995H29.4411C29.6991 9.46995 29.9418 9.52063 30.1691 9.622C30.3994 9.72029 30.5991 9.85544 30.768 10.0274C30.94 10.1964 31.0752 10.396 31.1735 10.6264C31.2748 10.8568 31.3255 11.101 31.3255 11.359C31.3255 11.617 31.2748 11.8612 31.1735 12.0915C31.0752 12.3219 30.94 12.5231 30.768 12.6951C30.5991 12.864 30.3994 12.9992 30.1691 13.1006C29.9418 13.1989 29.6991 13.248 29.4411 13.248H27.0821C26.9531 13.248 26.8303 13.2726 26.7135 13.3217C26.5968 13.3709 26.4955 13.4384 26.4095 13.5244C26.3234 13.6104 26.2543 13.7103 26.2021 13.8239C26.153 13.9376 26.1284 14.0589 26.1284 14.1879V15.1324H31.3255V16.0769Z" fill="#404040"/>
<path d="M40.4481 3.95773C40.8505 4.1021 41.2006 4.30789 41.4986 4.57512C41.7965 4.83928 42.0315 5.15872 42.2035 5.53345C42.3755 5.90511 42.4615 6.31824 42.4615 6.77284V8.3117C42.4615 8.76936 42.3755 9.18556 42.2035 9.5603C42.0315 9.93503 41.7965 10.256 41.4986 10.5232C41.2006 10.7874 40.8505 10.9917 40.4481 11.136C40.0457 11.2804 39.6157 11.3526 39.158 11.3526C38.7034 11.3526 38.2765 11.2804 37.8772 11.136C37.4748 10.9917 37.1247 10.7874 36.8267 10.5232C36.5257 10.256 36.2892 9.93503 36.1172 9.5603C35.9421 9.18556 35.8546 8.76936 35.8546 8.3117V6.77284C35.8546 6.31824 35.9421 5.90511 36.1172 5.53345C36.2892 5.15872 36.5257 4.83928 36.8267 4.57512C37.1247 4.30789 37.4748 4.1021 37.8772 3.95773C38.6914 3.65709 39.6336 3.65927 40.4481 3.95773ZM38.2412 4.82852C37.9555 4.92374 37.7067 5.06197 37.4948 5.24319C37.2798 5.42134 37.1108 5.63942 36.988 5.89744C36.862 6.15545 36.7991 6.44725 36.7991 6.77284V8.3117C36.7991 8.63729 36.862 8.93062 36.988 9.19171C37.1108 9.44972 37.2798 9.66934 37.4948 9.85056C37.7067 10.0287 37.9555 10.1669 38.2412 10.2652C38.5268 10.3604 38.8325 10.4081 39.158 10.4081C39.4836 10.4081 39.7908 10.3604 40.0795 10.2652C40.3652 10.1669 40.6155 10.0287 40.8305 9.85056C41.0425 9.66934 41.2099 9.44972 41.3327 9.19171C41.4556 8.93062 41.517 8.63729 41.517 8.3117V6.77284C41.517 6.44725 41.4556 6.15545 41.3327 5.89744C41.2099 5.63942 41.0425 5.42134 40.8305 5.24319C40.6155 5.06197 40.3652 4.92374 40.0795 4.82852C39.5021 4.63194 38.8125 4.63194 38.2412 4.82852Z" fill="#404040"/>
<path d="M39.9044 20.0513H38.9599V15.5683H38.0154V14.6238H39.9044V20.0513Z" fill="#404040"/>
</g>
<rect x="12.3846" y="5.30769" width="33.0256" height="16.5128" rx="1.76923" stroke="#404040" stroke-width="1.17949"/>
<path d="M61.3376 32.5385L65.1356 13.0203H69.561L73.2929 32.5385H69.7922L68.9996 28.5754H65.4328L64.7063 32.5385H61.3376ZM65.4989 26.9571H68.9666L67.2492 16.0917L65.4989 26.9571ZM75.0693 32.5385V16.1908H77.7114L77.9756 18.1393C78.2178 17.4788 78.6141 16.9504 79.1645 16.554C79.737 16.1577 80.4085 15.9596 81.1791 15.9596C82.4341 15.9596 83.3258 16.2238 83.8542 16.7522C84.3826 17.2806 84.6688 18.0512 84.7128 19.064H84.3165C84.4706 18.1613 84.8559 17.4237 85.4724 16.8513C86.1109 16.2568 86.8925 15.9596 87.8172 15.9596C89.2263 15.9596 90.1731 16.3009 90.6575 16.9834C91.1638 17.6439 91.417 18.6457 91.417 19.9887V32.5385H88.3126V20.2859C88.3126 19.4933 88.1805 18.9429 87.9163 18.6347C87.6741 18.3264 87.2668 18.1723 86.6944 18.1723C86.188 18.1723 85.7586 18.3154 85.4064 18.6016C85.0541 18.8879 84.8449 19.2511 84.7789 19.6915V32.5385H81.6745V20.1538C81.6745 19.4493 81.5534 18.9429 81.3112 18.6347C81.091 18.3264 80.6727 18.1723 80.0562 18.1723C79.5498 18.1723 79.1425 18.2934 78.8343 18.5356C78.548 18.7778 78.3279 19.064 78.1738 19.3943V32.5385H75.0693ZM94.001 32.5385V16.1908H97.1054V32.5385H94.001ZM95.5532 14.3413C95.0909 14.3413 94.6946 14.1872 94.3643 13.879C94.0561 13.5487 93.891 13.1524 93.8689 12.6901C93.8689 12.2497 94.0341 11.8754 94.3643 11.5672C94.6946 11.2369 95.0909 11.0718 95.5532 11.0718C96.0156 11.0718 96.4119 11.2369 96.7422 11.5672C97.0724 11.8754 97.2376 12.2607 97.2376 12.7231C97.2596 13.1634 97.0944 13.5487 96.7422 13.879C96.4119 14.1872 96.0156 14.3413 95.5532 14.3413ZM102.511 32.5385L98.8785 16.1908H102.082L104.559 29.0377H104.526L106.805 16.1908H109.744L106.21 32.5385H102.511ZM111.514 32.5385V16.1908H114.618V32.5385H111.514ZM113.066 14.3413C112.604 14.3413 112.207 14.1872 111.877 13.879C111.569 13.5487 111.404 13.1524 111.382 12.6901C111.382 12.2497 111.547 11.8754 111.877 11.5672C112.207 11.2369 112.604 11.0718 113.066 11.0718C113.528 11.0718 113.925 11.2369 114.255 11.5672C114.585 11.8754 114.75 12.2607 114.75 12.7231C114.772 13.1634 114.607 13.5487 114.255 13.879C113.925 14.1872 113.528 14.3413 113.066 14.3413ZM121.939 32.8687C120.861 32.8687 119.98 32.7476 119.297 32.5054C118.637 32.2632 118.13 31.933 117.778 31.5147C117.448 31.0743 117.228 30.5569 117.118 29.9625C117.008 29.368 116.953 28.7295 116.953 28.047V26.8581H120.09V28.6414C120.09 29.1038 120.112 29.5331 120.156 29.9294C120.2 30.3037 120.343 30.601 120.585 30.8211C120.85 31.0413 121.29 31.1514 121.906 31.1514C122.457 31.1514 122.853 31.0523 123.095 30.8542C123.338 30.634 123.492 30.3698 123.558 30.0615C123.624 29.7313 123.657 29.423 123.657 29.1368V27.9809C123.657 27.4305 123.547 26.9791 123.327 26.6269C123.128 26.2746 122.809 25.9774 122.369 25.7352C121.95 25.493 121.433 25.2398 120.817 24.9756C120.178 24.7334 119.584 24.4472 119.033 24.1169C118.505 23.7867 118.075 23.3683 117.745 22.8619C117.437 22.3335 117.283 21.673 117.283 20.8804V19.8896C117.283 18.5906 117.646 17.5999 118.373 16.9173C119.099 16.2128 120.376 15.8605 122.204 15.8605C123.393 15.8605 124.328 16.0256 125.011 16.3559C125.715 16.6641 126.211 17.1595 126.497 17.8421C126.805 18.5026 126.959 19.3612 126.959 20.4181V21.673H123.954V19.9227C123.954 19.042 123.811 18.4365 123.525 18.1063C123.26 17.754 122.82 17.5778 122.204 17.5778C121.521 17.5778 121.059 17.754 120.817 18.1063C120.574 18.4585 120.453 18.8879 120.453 19.3943V20.5171C120.453 21.1116 120.596 21.585 120.883 21.9372C121.191 22.2895 121.587 22.5867 122.072 22.8289C122.556 23.0491 123.106 23.2803 123.723 23.5225C124.317 23.7426 124.857 24.0068 125.341 24.3151C125.847 24.6233 126.244 25.0306 126.53 25.537C126.816 26.0434 126.959 26.7149 126.959 27.5516V28.4433C126.959 29.3019 126.827 30.0615 126.563 30.7221C126.299 31.3826 125.803 31.911 125.077 32.3073C124.35 32.6816 123.305 32.8687 121.939 32.8687ZM133.972 32.8027C132.761 32.8027 131.793 32.6375 131.066 32.3073C130.34 31.955 129.822 31.4046 129.514 30.656C129.206 29.8854 129.052 28.8726 129.052 27.6176V20.4181C129.052 19.4493 129.195 18.6347 129.481 17.9742C129.789 17.3136 130.307 16.8072 131.033 16.455C131.76 16.1027 132.739 15.9266 133.972 15.9266C135.205 15.9266 136.174 16.1027 136.879 16.455C137.583 16.8072 138.09 17.3136 138.398 17.9742C138.706 18.6347 138.86 19.4493 138.86 20.4181V27.6176C138.86 28.8726 138.695 29.8854 138.365 30.656C138.057 31.4046 137.539 31.955 136.813 32.3073C136.108 32.6375 135.161 32.8027 133.972 32.8027ZM133.972 30.9202C134.501 30.9202 134.886 30.8211 135.128 30.623C135.392 30.4028 135.558 30.1166 135.624 29.7643C135.712 29.39 135.756 28.9937 135.756 28.5754V20.1538C135.756 19.7135 135.712 19.3172 135.624 18.9649C135.558 18.6126 135.392 18.3264 135.128 18.1063C134.886 17.8861 134.501 17.776 133.972 17.776C133.422 17.776 133.015 17.8861 132.75 18.1063C132.486 18.3264 132.321 18.6126 132.255 18.9649C132.189 19.3172 132.156 19.7135 132.156 20.1538V28.5754C132.156 28.9937 132.189 29.39 132.255 29.7643C132.321 30.1166 132.486 30.4028 132.75 30.623C133.015 30.8211 133.422 30.9202 133.972 30.9202ZM141.379 32.5385V16.1908H144.021L144.285 18.0732C144.505 17.5228 144.846 17.1155 145.309 16.8513C145.771 16.5651 146.244 16.3669 146.729 16.2568C147.411 16.0146 148.105 15.9706 148.809 16.1247V18.5026C148.743 18.4805 148.578 18.4585 148.314 18.4365C148.05 18.3925 147.753 18.3815 147.422 18.4035C147.092 18.4255 146.806 18.5026 146.564 18.6347C145.925 18.7888 145.419 19.108 145.044 19.5924C144.67 20.0548 144.483 20.6492 144.483 21.3758V32.5385H141.379Z" fill="#404040"/>
<defs>
<clipPath id="clip0_30_310">
<rect x="11.7949" y="4.71795" width="34.2051" height="17.6923" rx="2.35897" fill="white"/>
</clipPath>
</defs>
</svg>
